<svg width="2505" height="526" viewBox="0 0 2505 526" fill="none" xmlns="http://www.w3.org/2000/svg">
<rect width="2505" height="526" fill="#1E1E1E"/>
<rect width="2505" height="526" fill="#D9D9D9"/>
<path d="M75.1865 161.888C90.9092 162.337 103.937 162.674 114.269 162.898C124.825 162.898 133.36 162.898 139.874 162.898H157.73H258.131C258.58 167.391 258.917 171.771 259.142 176.038C259.591 180.081 259.815 183.675 259.815 186.819C259.815 190.638 259.703 194.119 259.479 197.264C259.254 200.408 258.917 203.777 258.468 207.371C258.019 210.516 257.569 213.885 257.12 217.479C256.671 221.072 255.885 224.778 254.762 228.597C251.617 216.468 247.35 207.259 241.959 200.97C236.793 194.681 231.515 190.076 226.124 187.156C219.835 183.787 213.209 181.99 206.246 181.766C197.037 182.215 189.85 183.001 184.684 184.124C179.518 185.247 175.475 186.819 172.555 188.841C169.635 190.862 167.389 193.221 165.816 195.916C164.469 198.387 163.009 201.194 161.437 204.339C160.089 207.034 158.854 211.189 157.73 216.805C156.607 221.521 155.484 227.923 154.361 236.009C153.463 244.095 152.452 254.539 151.329 267.342C157.394 265.545 162.223 263.86 165.816 262.288C169.635 260.716 172.667 259.368 174.913 258.245C177.384 256.897 179.181 255.662 180.304 254.539C181.202 253.191 182.55 250.721 184.347 247.127C185.694 243.982 187.491 239.715 189.737 234.324C192.208 228.934 195.128 221.521 198.497 212.088C198.946 222.42 199.171 231.067 199.171 238.03C199.171 244.769 199.283 250.271 199.508 254.539C199.508 259.48 199.62 263.411 199.845 266.331V279.134C199.845 283.851 199.845 290.252 199.845 298.338C200.069 306.199 200.406 316.194 200.855 328.323C198.16 320.013 195.689 313.499 193.443 308.782C191.422 303.841 189.625 300.135 188.053 297.664C186.256 294.744 184.684 292.723 183.336 291.6C181.764 291.15 179.63 290.701 176.935 290.252C174.464 290.027 171.319 289.915 167.501 289.915C163.907 289.915 159.303 290.477 153.688 291.6C153.014 303.953 152.901 313.948 153.351 321.585C154.024 328.997 154.923 334.725 156.046 338.768C157.169 343.484 158.517 346.854 160.089 348.875C162.11 350.896 166.153 352.581 172.218 353.929C178.282 355.052 185.133 355.501 192.77 355.276C200.631 354.827 208.604 353.479 216.69 351.233C224.776 348.987 231.964 345.281 238.253 340.115C242.97 335.848 248.023 330.457 253.414 323.943C257.906 318.328 262.848 311.253 268.238 302.718C273.854 294.183 279.356 283.851 284.747 271.722C283.849 281.829 283.175 290.252 282.726 296.99C282.501 303.504 282.164 308.782 281.715 312.825C281.266 317.542 280.929 321.136 280.704 323.606C280.704 326.302 280.367 330.12 279.693 335.062C279.244 339.329 278.458 345.169 277.335 352.581C276.437 359.769 275.201 368.978 273.629 380.208C263.072 380.433 253.077 380.657 243.644 380.882C234.21 380.882 225.899 380.994 218.712 381.219C210.177 381.443 202.315 381.668 195.128 381.893C187.716 381.893 179.518 382.229 170.533 382.903C162.672 383.353 153.351 384.026 142.569 384.925C132.013 385.823 120.333 387.059 107.53 388.631C108.653 373.357 109.439 358.982 109.889 345.506C110.562 331.805 111.012 319.788 111.236 309.456C111.461 297.327 111.461 286.097 111.236 275.765C112.359 249.935 111.91 229.046 109.889 213.099C107.867 197.151 105.509 186.932 102.813 182.439C101.466 180.867 99.5566 178.958 97.0859 176.712C95.0645 174.915 92.2568 172.781 88.6631 170.311C85.0693 167.84 80.5771 165.032 75.1865 161.888ZM293.507 150.433C300.694 150.657 306.983 150.77 312.374 150.77C317.765 150.545 322.145 150.433 325.514 150.433H335.284C337.755 150.208 340.787 150.096 344.381 150.096C347.525 150.096 351.344 150.096 355.836 150.096C360.328 150.096 365.494 150.208 371.334 150.433C373.131 156.722 375.152 162.898 377.398 168.963C379.869 174.803 382.003 180.081 383.8 184.798C386.046 190.413 388.292 195.691 390.538 200.633C392.784 205.574 395.479 211.526 398.624 218.489C401.319 224.329 404.576 231.517 408.395 240.052C412.213 248.362 416.705 257.908 421.871 268.689C424.342 261.727 426.588 255.325 428.609 249.485C430.855 243.646 432.765 238.592 434.337 234.324C436.134 229.383 437.594 224.891 438.717 220.848C439.84 216.805 441.075 211.863 442.423 206.023C443.546 201.082 444.781 195.13 446.129 188.167C447.701 181.204 449.273 173.118 450.846 163.909C457.359 163.909 463.199 163.909 468.365 163.909C473.531 163.909 478.023 163.797 481.842 163.572C486.109 163.572 489.928 163.46 493.297 163.235C496.891 163.235 501.72 163.011 507.784 162.562C512.95 162.112 519.801 161.775 528.336 161.551C537.096 161.102 547.877 160.54 560.68 159.866C555.963 163.235 552.145 166.604 549.225 169.974C546.529 173.118 544.396 175.926 542.823 178.396C541.026 181.316 539.903 184.124 539.454 186.819C539.005 189.065 538.556 194.231 538.106 202.317C537.882 210.403 537.545 220.062 537.096 231.292C536.871 242.298 536.646 254.09 536.422 266.668C536.422 279.246 536.534 291.15 536.759 302.381C536.983 313.611 537.32 323.382 537.77 331.692C538.443 339.778 539.342 344.944 540.465 347.19C542.037 349.886 544.171 353.03 546.866 356.624C549.337 359.769 552.481 363.362 556.3 367.405C560.343 371.448 565.621 375.94 572.135 380.882C561.803 381.331 553.155 381.668 546.192 381.893C539.454 382.117 533.839 382.342 529.347 382.566C524.181 382.791 520.025 382.903 516.881 382.903C513.512 382.903 508.907 383.016 503.067 383.24C497.901 383.465 491.051 383.802 482.516 384.251C473.98 384.476 462.975 384.925 449.498 385.599C452.643 382.005 455.562 378.411 458.258 374.817C460.953 371.224 463.199 367.967 464.996 365.047C467.242 361.678 469.151 358.421 470.724 355.276C472.296 351.009 473.531 343.26 474.43 332.029C475.328 322.371 476.002 308.558 476.451 290.589C476.9 272.396 476.9 248.025 476.451 217.479C472.184 224.441 468.365 231.404 464.996 238.367C461.852 245.105 459.044 251.282 456.573 256.897C453.878 263.411 451.407 269.7 449.161 275.765C446.915 282.054 444.557 289.017 442.086 296.653C439.84 303.167 437.145 310.916 434 319.9C431.08 328.885 427.711 338.768 423.893 349.549L411.09 350.223C409.293 341.238 407.496 333.152 405.699 325.965C403.902 318.553 402.105 312.264 400.309 307.098C398.287 301.033 396.266 295.643 394.244 290.926C391.998 286.209 389.527 280.931 386.832 275.091C384.361 270.149 381.329 264.31 377.735 257.571C374.366 250.833 370.436 243.309 365.943 234.998C363.697 257.908 362.35 276.551 361.9 290.926C361.451 305.076 361.451 316.082 361.9 323.943C362.35 333.377 363.023 340.228 363.922 344.495C365.27 348.313 367.403 352.581 370.323 357.298C372.794 361.341 376.163 366.17 380.431 371.785C384.923 377.176 390.65 383.24 397.613 389.979C392.672 389.979 387.506 389.979 382.115 389.979C376.725 389.979 371.783 390.091 367.291 390.315C361.9 390.54 356.622 390.652 351.456 390.652C346.065 390.877 339.776 391.214 332.589 391.663C326.3 392.112 318.775 392.562 310.016 393.011C301.256 393.46 291.148 394.246 279.693 395.369C284.635 392.225 288.678 389.192 291.822 386.272C294.967 383.128 297.438 380.32 299.234 377.85C301.48 374.93 303.165 372.01 304.288 369.09C304.962 367.293 305.523 363.362 305.973 357.298C306.646 351.233 307.208 343.821 307.657 335.062C308.331 326.302 308.78 316.531 309.005 305.75C309.454 294.969 309.791 284.075 310.016 273.069C310.465 261.839 310.802 250.945 311.026 240.389C311.251 229.607 311.363 219.949 311.363 211.414C311.588 202.654 311.7 195.354 311.7 189.515C311.7 183.675 311.7 179.969 311.7 178.396C311.026 175.027 310.016 171.658 308.668 168.289C307.545 165.369 305.748 162.337 303.277 159.192C300.807 156.048 297.55 153.128 293.507 150.433ZM554.952 150.77C563.487 152.791 571.124 154.363 577.862 155.486C584.825 156.385 590.665 157.059 595.382 157.508C600.997 158.182 605.938 158.406 610.206 158.182C615.597 157.957 622.335 157.171 630.421 155.823C638.507 154.476 647.042 153.128 656.026 151.78C665.011 150.433 673.883 149.31 682.643 148.411C691.402 147.513 699.039 147.4 705.553 148.074C712.066 148.748 718.917 150.32 726.104 152.791C733.292 155.037 740.03 158.182 746.319 162.225C752.608 166.043 757.999 170.76 762.491 176.375C767.208 181.99 770.128 188.504 771.251 195.916C772.374 203.104 771.7 210.853 769.229 219.163C766.759 227.249 762.828 235.223 757.438 243.084C752.047 250.721 745.309 257.796 737.223 264.31C729.137 270.823 720.152 276.102 710.27 280.145C702.408 283.064 693.873 285.311 684.664 286.883C676.803 288.23 667.594 289.129 657.037 289.578C646.705 289.803 635.699 288.68 624.02 286.209C622.447 292.723 621.549 298.787 621.324 304.402C621.324 309.793 621.549 314.622 621.998 318.89C622.672 323.831 623.57 328.323 624.693 332.366C626.041 336.409 627.726 341.126 629.747 346.517C631.544 351.009 633.565 356.512 635.812 363.025C638.282 369.314 641.202 376.39 644.571 384.251C640.528 384.251 636.598 384.363 632.779 384.588C628.961 384.588 625.479 384.7 622.335 384.925C618.741 385.149 615.372 385.374 612.228 385.599C608.634 385.823 604.591 386.272 600.099 386.946C596.28 387.396 591.451 388.069 585.611 388.968C579.996 389.866 573.595 390.989 566.407 392.337C571.124 385.599 574.83 379.422 577.525 373.807C580.445 367.967 582.579 362.913 583.927 358.646C585.499 353.704 586.51 349.212 586.959 345.169C587.184 341.8 587.184 335.848 586.959 327.312C586.959 318.777 586.847 308.895 586.622 297.664C586.397 286.434 586.061 274.642 585.611 262.288C585.162 249.935 584.601 238.367 583.927 227.586C583.253 216.58 582.467 207.146 581.568 199.285C580.895 191.424 580.221 186.258 579.547 183.787C578.648 180.867 577.076 177.723 574.83 174.354C573.033 171.434 570.45 168.064 567.081 164.246C563.937 160.203 559.894 155.711 554.952 150.77ZM624.693 217.142C624.469 219.388 624.356 221.746 624.356 224.217C624.356 228.934 624.693 234.998 625.367 242.41C626.939 246.229 628.849 249.373 631.095 251.844C633.565 254.314 636.148 256.224 638.844 257.571C641.764 258.919 644.684 259.817 647.604 260.267C650.523 260.716 653.443 260.94 656.363 260.94C663.102 260.716 670.177 259.144 677.589 256.224C687.472 251.956 694.435 245.892 698.478 238.03C702.521 230.169 704.654 222.083 704.879 213.772C705.104 205.462 703.644 197.825 700.499 190.862C697.579 183.899 693.985 179.183 689.718 176.712C686.124 175.14 681.52 174.466 675.904 174.69C670.963 174.915 664.786 176.15 657.374 178.396C649.962 180.643 640.865 184.686 630.084 190.525C628.961 194.568 628.062 198.162 627.389 201.307C626.715 204.451 626.153 207.259 625.704 209.729C625.255 212.425 624.918 214.896 624.693 217.142ZM768.219 416.15H1113.22V71.15H768.219V416.15ZM1088.96 155.149C1096.37 156.048 1103.11 156.722 1109.18 157.171C1115.02 157.62 1120.07 158.069 1124.34 158.519C1129.28 158.968 1133.66 159.305 1137.48 159.529C1141.52 159.529 1146.69 159.417 1152.97 159.192C1158.37 158.968 1165.22 158.631 1173.53 158.182C1181.84 157.732 1192.06 156.946 1204.19 155.823C1198.35 159.192 1193.52 162.562 1189.7 165.931C1186.1 169.3 1183.3 172.332 1181.28 175.027C1178.8 178.172 1177.01 181.316 1175.88 184.461C1175.21 188.729 1175.44 197.039 1176.56 209.393C1177.01 214.559 1177.68 220.96 1178.58 228.597C1179.7 236.009 1181.05 244.881 1182.62 255.213C1184.42 265.32 1186.55 277 1189.02 290.252C1191.72 303.504 1194.75 318.553 1198.12 335.398C1202.61 322.596 1206.32 311.253 1209.24 301.37C1212.16 291.263 1214.63 282.615 1216.65 275.428C1218.9 267.342 1220.81 260.154 1222.38 253.865C1223.95 247.352 1225.86 238.929 1228.11 228.597C1229.9 219.837 1232.26 208.494 1235.18 194.568C1238.1 180.643 1241.7 163.46 1245.96 143.021L1258.09 144.705C1259.21 160.652 1260.34 174.69 1261.46 186.819C1262.81 198.948 1263.93 209.28 1264.83 217.815C1265.73 227.698 1266.63 236.233 1267.53 243.421C1268.42 249.935 1269.77 257.459 1271.57 265.994C1273.14 273.182 1275.16 282.054 1277.63 292.61C1280.1 302.942 1283.36 314.622 1287.4 327.649C1291.45 311.702 1295.04 297.439 1298.18 284.861C1301.55 272.283 1304.36 261.165 1306.61 251.507C1309.08 241.849 1311.1 233.538 1312.67 226.575C1314.47 219.612 1315.93 213.772 1317.05 209.056C1319.52 197.825 1320.98 190.301 1321.43 186.482C1321.21 182.215 1320.2 178.06 1318.4 174.017C1316.83 170.423 1314.36 166.492 1310.99 162.225C1307.62 157.957 1302.68 153.802 1296.16 149.759C1309.86 150.208 1320.98 150.545 1329.52 150.77C1338.28 150.77 1345.24 150.77 1350.41 150.77H1363.88H1376.01C1380.5 150.77 1386.34 150.77 1393.53 150.77C1400.94 150.545 1410.38 150.208 1421.83 149.759C1411.95 154.925 1403.98 159.642 1397.91 163.909C1391.85 168.177 1387.13 171.771 1383.76 174.69C1379.72 178.284 1376.8 181.316 1375 183.787C1373.2 188.279 1370.28 198.387 1366.24 214.109C1364.44 220.848 1362.42 229.271 1360.18 239.378C1357.93 249.261 1355.24 261.165 1352.09 275.091C1349.17 289.017 1345.8 305.301 1341.98 323.943C1338.17 342.361 1333.9 363.475 1329.18 387.283L1270.89 381.219L1245.96 276.438C1242.14 295.53 1239.11 311.028 1236.87 322.933C1234.62 334.612 1232.94 343.709 1231.81 350.223C1230.46 358.084 1229.68 363.812 1229.45 367.405C1229.23 370.55 1229 373.582 1228.78 376.502C1228.56 378.973 1228.22 381.668 1227.77 384.588C1227.54 387.508 1227.21 390.203 1226.76 392.674H1167.12C1161.29 367.068 1156.01 344.495 1151.29 324.954C1146.8 305.188 1142.75 287.894 1139.16 273.069C1135.57 258.245 1132.42 245.667 1129.73 235.335C1127.26 225.003 1125.01 216.355 1122.99 209.393C1118.5 193.221 1115.24 183.226 1113.22 179.407C1111.65 177.61 1109.62 175.477 1107.15 173.006C1105.13 170.984 1102.66 168.514 1099.74 165.594C1096.6 162.449 1093 158.968 1088.96 155.149ZM1366.58 161.888C1382.3 162.337 1395.33 162.674 1405.66 162.898C1416.22 162.898 1424.75 162.898 1431.27 162.898H1449.12H1549.52C1549.97 167.391 1550.31 171.771 1550.53 176.038C1550.98 180.081 1551.21 183.675 1551.21 186.819C1551.21 190.638 1551.09 194.119 1550.87 197.264C1550.65 200.408 1550.31 203.777 1549.86 207.371C1549.41 210.516 1548.96 213.885 1548.51 217.479C1548.06 221.072 1547.28 224.778 1546.15 228.597C1543.01 216.468 1538.74 207.259 1533.35 200.97C1528.18 194.681 1522.91 190.076 1517.52 187.156C1511.23 183.787 1504.6 181.99 1497.64 181.766C1488.43 182.215 1481.24 183.001 1476.08 184.124C1470.91 185.247 1466.87 186.819 1463.95 188.841C1461.03 190.862 1458.78 193.221 1457.21 195.916C1455.86 198.387 1454.4 201.194 1452.83 204.339C1451.48 207.034 1450.25 211.189 1449.12 216.805C1448 221.521 1446.88 227.923 1445.75 236.009C1444.85 244.095 1443.84 254.539 1442.72 267.342C1448.79 265.545 1453.61 263.86 1457.21 262.288C1461.03 260.716 1464.06 259.368 1466.3 258.245C1468.78 256.897 1470.57 255.662 1471.7 254.539C1472.59 253.191 1473.94 250.721 1475.74 247.127C1477.09 243.982 1478.88 239.715 1481.13 234.324C1483.6 228.934 1486.52 221.521 1489.89 212.088C1490.34 222.42 1490.56 231.067 1490.56 238.03C1490.56 244.769 1490.67 250.271 1490.9 254.539C1490.9 259.48 1491.01 263.411 1491.24 266.331V279.134C1491.24 283.851 1491.24 290.252 1491.24 298.338C1491.46 306.199 1491.8 316.194 1492.25 328.323C1489.55 320.013 1487.08 313.499 1484.83 308.782C1482.81 303.841 1481.02 300.135 1479.44 297.664C1477.65 294.744 1476.08 292.723 1474.73 291.6C1473.16 291.15 1471.02 290.701 1468.33 290.252C1465.86 290.027 1462.71 289.915 1458.89 289.915C1455.3 289.915 1450.69 290.477 1445.08 291.6C1444.41 303.953 1444.29 313.948 1444.74 321.585C1445.42 328.997 1446.31 334.725 1447.44 338.768C1448.56 343.484 1449.91 346.854 1451.48 348.875C1453.5 350.896 1457.54 352.581 1463.61 353.929C1469.67 355.052 1476.52 355.501 1484.16 355.276C1492.02 354.827 1500 353.479 1508.08 351.233C1516.17 348.987 1523.36 345.281 1529.64 340.115C1534.36 335.848 1539.42 330.457 1544.81 323.943C1549.3 318.328 1554.24 311.253 1559.63 302.718C1565.25 294.183 1570.75 283.851 1576.14 271.722C1575.24 281.829 1574.57 290.252 1574.12 296.99C1573.89 303.504 1573.56 308.782 1573.11 312.825C1572.66 317.542 1572.32 321.136 1572.1 323.606C1572.1 326.302 1571.76 330.12 1571.08 335.062C1570.64 339.329 1569.85 345.169 1568.73 352.581C1567.83 359.769 1566.59 368.978 1565.02 380.208C1554.46 380.433 1544.47 380.657 1535.04 380.882C1525.6 380.882 1517.29 380.994 1510.1 381.219C1501.57 381.443 1493.71 381.668 1486.52 381.893C1479.11 381.893 1470.91 382.229 1461.92 382.903C1454.06 383.353 1444.74 384.026 1433.96 384.925C1423.4 385.823 1411.72 387.059 1398.92 388.631C1400.04 373.357 1400.83 358.982 1401.28 345.506C1401.95 331.805 1402.4 319.788 1402.63 309.456C1402.85 297.327 1402.85 286.097 1402.63 275.765C1403.75 249.935 1403.3 229.046 1401.28 213.099C1399.26 197.151 1396.9 186.932 1394.21 182.439C1392.86 180.867 1390.95 178.958 1388.48 176.712C1386.46 174.915 1383.65 172.781 1380.05 170.311C1376.46 167.84 1371.97 165.032 1366.58 161.888ZM1574.45 146.053C1581.64 147.176 1588.16 148.187 1594 149.085C1599.83 149.759 1604.89 150.32 1609.16 150.77C1614.1 151.443 1618.48 152.005 1622.3 152.454C1627.01 153.128 1634.09 152.342 1643.52 150.096C1652.96 147.625 1663.29 145.379 1674.52 143.357C1685.97 141.111 1697.65 139.876 1709.56 139.651C1721.46 139.202 1732.35 141.336 1742.24 146.053C1752.12 150.77 1760.21 155.486 1766.5 160.203C1772.78 164.92 1777.73 169.974 1781.32 175.364C1785.14 180.53 1787.83 186.033 1789.41 191.873C1790.98 197.713 1791.88 204.114 1792.1 211.077C1791.88 221.409 1789.41 231.404 1784.69 241.062C1782.67 245.105 1779.97 249.373 1776.6 253.865C1773.46 258.133 1769.53 262.288 1764.81 266.331C1760.09 270.374 1754.48 274.192 1747.96 277.786C1741.68 281.38 1734.26 284.524 1725.73 287.22C1734.04 289.69 1740.89 292.61 1746.28 295.979C1751.9 299.349 1756.39 302.493 1759.76 305.413C1763.8 309.007 1766.83 312.488 1768.85 315.857C1771.32 320.574 1773.01 324.617 1773.91 327.986C1774.81 331.355 1775.37 334.612 1775.59 337.757C1776.04 340.677 1776.6 343.709 1777.28 346.854C1777.95 349.998 1779.41 353.592 1781.66 357.635C1783.45 360.779 1785.59 364.036 1788.06 367.405C1790.3 370.325 1792.89 373.47 1795.81 376.839C1798.95 380.208 1802.77 383.465 1807.26 386.609C1800.97 386.834 1795.13 386.946 1789.74 386.946C1784.58 386.946 1780.08 386.946 1776.27 386.946C1771.77 386.946 1767.51 386.834 1763.46 386.609C1759.42 386.385 1754.37 386.272 1748.3 386.272C1743.14 386.272 1736.51 386.272 1728.42 386.272C1720.56 386.272 1711.02 386.385 1699.79 386.609C1704.73 382.791 1708.77 378.973 1711.92 375.154C1715.06 371.336 1717.53 367.854 1719.33 364.71C1721.35 361.116 1722.81 357.635 1723.71 354.266C1724.83 348.201 1724.94 341.912 1724.04 335.398C1723.37 329.783 1721.57 323.606 1718.65 316.868C1715.73 309.905 1711.02 302.942 1704.5 295.979C1697.99 297.103 1692.49 298.001 1687.99 298.675C1683.73 299.124 1680.02 299.573 1676.88 300.022C1673.28 300.472 1670.36 300.809 1668.12 301.033C1666.09 301.258 1663.85 301.482 1661.38 301.707C1659.36 301.932 1657.11 302.269 1654.64 302.718C1652.39 302.942 1650.26 303.279 1648.24 303.729C1647.79 313.387 1647.79 321.81 1648.24 328.997C1648.69 335.96 1649.25 341.8 1649.92 346.517C1650.82 352.132 1651.83 356.961 1652.96 361.004C1654.08 365.047 1655.65 368.978 1657.67 372.796C1659.24 375.94 1661.27 379.31 1663.74 382.903C1666.21 386.272 1669.01 389.08 1672.16 391.326C1666.32 391.326 1660.7 391.326 1655.31 391.326C1650.15 391.326 1645.43 391.214 1641.16 390.989C1636.22 390.989 1631.5 390.877 1627.01 390.652C1622.52 390.428 1617.47 390.315 1611.85 390.315C1607.13 390.315 1601.52 390.315 1595.01 390.315C1588.72 390.315 1581.87 390.428 1574.45 390.652C1580.29 384.588 1584.9 379.422 1588.27 375.154C1591.64 370.887 1594.22 367.293 1596.02 364.373C1598.04 361.229 1599.27 358.533 1599.72 356.287C1600.17 352.693 1600.51 346.292 1600.73 337.083C1601.18 327.649 1601.52 316.868 1601.74 304.739C1601.97 292.61 1602.08 279.92 1602.08 266.668C1602.08 253.416 1601.97 241.062 1601.74 229.607C1601.52 217.928 1601.29 207.933 1601.07 199.622C1600.85 191.312 1600.62 186.033 1600.4 183.787C1599.72 179.744 1598.26 175.701 1596.02 171.658C1594.22 168.064 1591.64 164.021 1588.27 159.529C1584.9 155.037 1580.29 150.545 1574.45 146.053ZM1701.81 264.646C1704.05 263.299 1705.96 261.951 1707.54 260.604C1709.11 259.256 1710.46 257.122 1711.58 254.202C1712.7 251.058 1713.6 246.678 1714.27 241.062C1715.17 235.447 1716.18 227.811 1717.31 218.152C1718.2 208.494 1717.53 200.521 1715.28 194.231C1713.26 187.942 1710.46 183.001 1706.86 179.407C1703.49 175.589 1699.67 173.006 1695.41 171.658C1691.36 170.086 1687.77 169.3 1684.62 169.3C1678.34 169.3 1672.16 171.209 1666.09 175.027C1660.03 178.846 1655.43 184.012 1652.28 190.525C1651.16 193.445 1650.15 198.274 1649.25 205.013C1648.58 210.853 1648.13 218.938 1647.9 229.271C1647.68 239.603 1648.01 253.191 1648.91 270.037C1657.45 271.385 1664.97 271.946 1671.49 271.722C1678 271.272 1683.5 270.486 1687.99 269.363C1693.38 268.24 1697.99 266.668 1701.81 264.646ZM1790.08 152.791C1797.94 153.689 1804.57 154.363 1809.96 154.812C1815.35 155.037 1819.62 155.262 1822.76 155.486C1826.58 155.711 1829.61 155.823 1831.86 155.823C1835.67 155.823 1840.05 155.711 1845 155.486C1849.26 155.262 1854.21 154.925 1859.82 154.476C1865.66 153.802 1871.95 152.791 1878.69 151.443C1875.54 154.812 1872.96 158.069 1870.94 161.214C1868.92 164.134 1867.34 166.829 1866.22 169.3C1864.87 171.995 1863.75 174.466 1862.85 176.712C1861.95 179.632 1860.94 184.124 1859.82 190.188C1858.7 195.354 1857.46 202.654 1856.11 212.088C1854.99 221.521 1853.53 233.875 1851.73 249.148C1859.37 249.373 1866 249.485 1871.61 249.485C1877.23 249.261 1881.94 249.148 1885.76 249.148H1896.88C1900.03 248.924 1903.62 248.699 1907.66 248.475C1914.4 248.25 1924.62 247.576 1938.32 246.453C1939.44 236.121 1940.01 227.249 1940.01 219.837C1940.23 212.2 1940.12 205.799 1939.67 200.633C1939.22 194.793 1938.55 189.852 1937.65 185.809C1936.97 183.562 1935.96 180.867 1934.62 177.723C1933.49 175.027 1931.92 171.771 1929.9 167.952C1928.1 163.909 1925.63 159.08 1922.49 153.465C1928.33 154.363 1933.49 155.037 1937.98 155.486C1942.7 155.711 1946.63 155.936 1949.78 156.16C1953.37 156.385 1956.4 156.497 1958.87 156.497C1961.34 156.497 1964.6 156.385 1968.64 156.16C1972.01 155.936 1976.17 155.823 1981.11 155.823C1986.05 155.599 1992.12 155.262 1999.3 154.812C1997.51 157.957 1995.93 161.214 1994.59 164.583C1993.24 167.952 1992.12 170.984 1991.22 173.68C1990.32 176.824 1989.42 179.969 1988.52 183.113C1987.4 187.83 1986.39 194.681 1985.49 203.665C1984.82 212.649 1984.14 222.645 1983.47 233.65C1983.02 244.656 1982.57 256.111 1982.12 268.016C1981.9 279.92 1981.67 291.15 1981.45 301.707C1981.45 312.264 1981.56 321.697 1981.78 330.008C1982.01 338.094 1982.46 343.821 1983.13 347.19C1983.8 351.233 1984.93 355.389 1986.5 359.656C1987.85 363.475 1989.64 367.63 1991.89 372.122C1994.14 376.39 1997.06 380.433 2000.65 384.251L1919.45 390.315C1922.82 387.171 1925.52 384.139 1927.54 381.219C1929.56 378.074 1931.13 375.379 1932.26 373.133C1933.38 370.662 1934.17 368.304 1934.62 366.058C1934.84 363.362 1935.18 358.646 1935.63 351.907C1936.08 346.292 1936.52 338.318 1936.97 327.986C1937.42 317.654 1937.87 303.953 1938.32 286.883C1935.18 286.883 1931.36 286.995 1926.87 287.22C1922.6 287.22 1918.56 287.332 1914.74 287.557C1910.25 287.781 1905.53 287.894 1900.59 287.894C1895.65 288.118 1890.48 288.343 1885.09 288.567C1880.6 289.017 1875.54 289.466 1869.93 289.915C1864.54 290.14 1859.15 290.477 1853.76 290.926C1853.31 300.359 1853.31 308.67 1853.76 315.857C1854.21 322.82 1854.88 328.772 1855.78 333.714C1856.68 339.554 1857.8 344.607 1859.15 348.875C1860.49 352.918 1861.95 356.961 1863.53 361.004C1864.87 364.598 1866.45 368.416 1868.24 372.459C1870.26 376.502 1872.29 380.096 1874.31 383.24C1870.04 382.791 1866.11 382.454 1862.52 382.229C1858.92 381.78 1855.78 381.331 1853.08 380.882C1849.94 380.657 1846.91 380.433 1843.99 380.208C1841.07 380.208 1837.58 380.096 1833.54 379.871C1829.95 379.646 1825.46 379.534 1820.06 379.534C1814.67 379.31 1808.38 379.197 1801.2 379.197C1805.46 374.93 1808.83 370.774 1811.3 366.731C1814 362.464 1815.91 358.646 1817.03 355.276C1818.38 351.233 1819.28 347.527 1819.73 344.158C1819.95 341.238 1820.06 335.735 1820.06 327.649C1820.29 319.563 1820.29 310.354 1820.06 300.022C1820.06 289.466 1819.95 278.46 1819.73 267.005C1819.5 255.325 1819.17 244.432 1818.72 234.324C1818.49 224.217 1818.16 215.569 1817.71 208.382C1817.48 200.97 1817.26 196.365 1817.03 194.568C1815.91 190.525 1814.22 186.146 1811.98 181.429C1809.96 177.61 1807.26 173.23 1803.89 168.289C1800.52 163.123 1795.92 157.957 1790.08 152.791ZM1990.21 161.888C2005.93 162.337 2018.96 162.674 2029.29 162.898C2039.84 162.898 2048.38 162.898 2054.89 162.898H2072.75H2173.15C2173.6 167.391 2173.94 171.771 2174.16 176.038C2174.61 180.081 2174.83 183.675 2174.83 186.819C2174.83 190.638 2174.72 194.119 2174.5 197.264C2174.27 200.408 2173.94 203.777 2173.49 207.371C2173.04 210.516 2172.59 213.885 2172.14 217.479C2171.69 221.072 2170.9 224.778 2169.78 228.597C2166.64 216.468 2162.37 207.259 2156.98 200.97C2151.81 194.681 2146.53 190.076 2141.14 187.156C2134.85 183.787 2128.23 181.99 2121.27 181.766C2112.06 182.215 2104.87 183.001 2099.7 184.124C2094.54 185.247 2090.49 186.819 2087.57 188.841C2084.65 190.862 2082.41 193.221 2080.84 195.916C2079.49 198.387 2078.03 201.194 2076.46 204.339C2075.11 207.034 2073.87 211.189 2072.75 216.805C2071.63 221.521 2070.5 227.923 2069.38 236.009C2068.48 244.095 2067.47 254.539 2066.35 267.342C2072.41 265.545 2077.24 263.86 2080.84 262.288C2084.65 260.716 2087.69 259.368 2089.93 258.245C2092.4 256.897 2094.2 255.662 2095.32 254.539C2096.22 253.191 2097.57 250.721 2099.37 247.127C2100.71 243.982 2102.51 239.715 2104.76 234.324C2107.23 228.934 2110.15 221.521 2113.52 212.088C2113.97 222.42 2114.19 231.067 2114.19 238.03C2114.19 244.769 2114.3 250.271 2114.53 254.539C2114.53 259.48 2114.64 263.411 2114.86 266.331V279.134C2114.86 283.851 2114.86 290.252 2114.86 298.338C2115.09 306.199 2115.43 316.194 2115.88 328.323C2113.18 320.013 2110.71 313.499 2108.46 308.782C2106.44 303.841 2104.64 300.135 2103.07 297.664C2101.28 294.744 2099.7 292.723 2098.36 291.6C2096.78 291.15 2094.65 290.701 2091.95 290.252C2089.48 290.027 2086.34 289.915 2082.52 289.915C2078.93 289.915 2074.32 290.477 2068.71 291.6C2068.03 303.953 2067.92 313.948 2068.37 321.585C2069.04 328.997 2069.94 334.725 2071.07 338.768C2072.19 343.484 2073.54 346.854 2075.11 348.875C2077.13 350.896 2081.17 352.581 2087.24 353.929C2093.3 355.052 2100.15 355.501 2107.79 355.276C2115.65 354.827 2123.62 353.479 2131.71 351.233C2139.8 348.987 2146.98 345.281 2153.27 340.115C2157.99 335.848 2163.04 330.457 2168.43 323.943C2172.93 318.328 2177.87 311.253 2183.26 302.718C2188.87 294.183 2194.38 283.851 2199.77 271.722C2198.87 281.829 2198.19 290.252 2197.75 296.99C2197.52 303.504 2197.18 308.782 2196.73 312.825C2196.29 317.542 2195.95 321.136 2195.72 323.606C2195.72 326.302 2195.39 330.12 2194.71 335.062C2194.26 339.329 2193.48 345.169 2192.35 352.581C2191.46 359.769 2190.22 368.978 2188.65 380.208C2178.09 380.433 2168.1 380.657 2158.66 380.882C2149.23 380.882 2140.92 380.994 2133.73 381.219C2125.2 381.443 2117.33 381.668 2110.15 381.893C2102.74 381.893 2094.54 382.229 2085.55 382.903C2077.69 383.353 2068.37 384.026 2057.59 384.925C2047.03 385.823 2035.35 387.059 2022.55 388.631C2023.67 373.357 2024.46 358.982 2024.91 345.506C2025.58 331.805 2026.03 319.788 2026.26 309.456C2026.48 297.327 2026.48 286.097 2026.26 275.765C2027.38 249.935 2026.93 229.046 2024.91 213.099C2022.89 197.151 2020.53 186.932 2017.83 182.439C2016.49 180.867 2014.58 178.958 2012.11 176.712C2010.08 174.915 2007.28 172.781 2003.68 170.311C2000.09 167.84 1995.6 165.032 1990.21 161.888ZM2198.08 146.053C2205.27 147.176 2211.78 148.187 2217.62 149.085C2223.46 149.759 2228.52 150.32 2232.78 150.77C2237.73 151.443 2242.11 152.005 2245.92 152.454C2250.64 153.128 2257.72 152.342 2267.15 150.096C2276.58 147.625 2286.92 145.379 2298.15 143.357C2309.6 141.111 2321.28 139.876 2333.18 139.651C2345.09 139.202 2355.98 141.336 2365.87 146.053C2375.75 150.77 2383.83 155.486 2390.12 160.203C2396.41 164.92 2401.35 169.974 2404.95 175.364C2408.77 180.53 2411.46 186.033 2413.03 191.873C2414.61 197.713 2415.5 204.114 2415.73 211.077C2415.5 221.409 2413.03 231.404 2408.32 241.062C2406.29 245.105 2403.6 249.373 2400.23 253.865C2397.09 258.133 2393.16 262.288 2388.44 266.331C2383.72 270.374 2378.11 274.192 2371.59 277.786C2365.3 281.38 2357.89 284.524 2349.36 287.22C2357.67 289.69 2364.52 292.61 2369.91 295.979C2375.52 299.349 2380.02 302.493 2383.38 305.413C2387.43 309.007 2390.46 312.488 2392.48 315.857C2394.95 320.574 2396.64 324.617 2397.54 327.986C2398.43 331.355 2399 334.612 2399.22 337.757C2399.67 340.677 2400.23 343.709 2400.9 346.854C2401.58 349.998 2403.04 353.592 2405.28 357.635C2407.08 360.779 2409.21 364.036 2411.69 367.405C2413.93 370.325 2416.51 373.47 2419.43 376.839C2422.58 380.208 2426.4 383.465 2430.89 386.609C2424.6 386.834 2418.76 386.946 2413.37 386.946C2408.2 386.946 2403.71 386.946 2399.89 386.946C2395.4 386.946 2391.13 386.834 2387.09 386.609C2383.05 386.385 2377.99 386.272 2371.93 386.272C2366.76 386.272 2360.14 386.272 2352.05 386.272C2344.19 386.272 2334.64 386.385 2323.41 386.609C2328.36 382.791 2332.4 378.973 2335.54 375.154C2338.69 371.336 2341.16 367.854 2342.96 364.71C2344.98 361.116 2346.44 357.635 2347.33 354.266C2348.46 348.201 2348.57 341.912 2347.67 335.398C2347 329.783 2345.2 323.606 2342.28 316.868C2339.36 309.905 2334.64 302.942 2328.13 295.979C2321.62 297.103 2316.11 298.001 2311.62 298.675C2307.35 299.124 2303.65 299.573 2300.5 300.022C2296.91 300.472 2293.99 300.809 2291.74 301.033C2289.72 301.258 2287.48 301.482 2285.01 301.707C2282.98 301.932 2280.74 302.269 2278.27 302.718C2276.02 302.942 2273.89 303.279 2271.87 303.729C2271.42 313.387 2271.42 321.81 2271.87 328.997C2272.32 335.96 2272.88 341.8 2273.55 346.517C2274.45 352.132 2275.46 356.961 2276.58 361.004C2277.71 365.047 2279.28 368.978 2281.3 372.796C2282.87 375.94 2284.89 379.31 2287.36 382.903C2289.83 386.272 2292.64 389.08 2295.79 391.326C2289.95 391.326 2284.33 391.326 2278.94 391.326C2273.78 391.326 2269.06 391.214 2264.79 390.989C2259.85 390.989 2255.13 390.877 2250.64 390.652C2246.15 390.428 2241.09 390.315 2235.48 390.315C2230.76 390.315 2225.15 390.315 2218.63 390.315C2212.34 390.315 2205.49 390.428 2198.08 390.652C2203.92 384.588 2208.53 379.422 2211.9 375.154C2215.26 370.887 2217.85 367.293 2219.64 364.373C2221.67 361.229 2222.9 358.533 2223.35 356.287C2223.8 352.693 2224.14 346.292 2224.36 337.083C2224.81 327.649 2225.15 316.868 2225.37 304.739C2225.6 292.61 2225.71 279.92 2225.71 266.668C2225.71 253.416 2225.6 241.062 2225.37 229.607C2225.15 217.928 2224.92 207.933 2224.7 199.622C2224.47 191.312 2224.25 186.033 2224.02 183.787C2223.35 179.744 2221.89 175.701 2219.64 171.658C2217.85 168.064 2215.26 164.021 2211.9 159.529C2208.53 155.037 2203.92 150.545 2198.08 146.053ZM2325.44 264.646C2327.68 263.299 2329.59 261.951 2331.16 260.604C2332.74 259.256 2334.08 257.122 2335.21 254.202C2336.33 251.058 2337.23 246.678 2337.9 241.062C2338.8 235.447 2339.81 227.811 2340.93 218.152C2341.83 208.494 2341.16 200.521 2338.91 194.231C2336.89 187.942 2334.08 183.001 2330.49 179.407C2327.12 175.589 2323.3 173.006 2319.03 171.658C2314.99 170.086 2311.4 169.3 2308.25 169.3C2301.96 169.3 2295.79 171.209 2289.72 175.027C2283.66 178.846 2279.05 184.012 2275.91 190.525C2274.79 193.445 2273.78 198.274 2272.88 205.013C2272.2 210.853 2271.75 218.938 2271.53 229.271C2271.3 239.603 2271.64 253.191 2272.54 270.037C2281.08 271.385 2288.6 271.946 2295.11 271.722C2301.63 271.272 2307.13 270.486 2311.62 269.363C2317.01 268.24 2321.62 266.668 2325.44 264.646Z" fill="white"/>
</svg>
